<?xml version="1.0" encoding="utf-8"?>
<svg xmlns="http://www.w3.org/2000/svg" width="1184" height="864" viewBox="0 0 1184 864">
  
  <path d="M 422.767 596.633 C 415.877 598.033 383.747 599.333 377.637 598.463 C 375.987 598.223 371.037 597.553 366.637 596.983 C 349.097 594.673 328.467 587.583 313.037 578.563 C 277.297 557.643 247.477 519.833 237.687 482.993 C 233.337 466.653 230.677 437.103 233.387 435.353 C 234.927 434.353 326.497 434.023 328.087 435.013 C 328.727 435.403 329.847 440.033 330.577 445.283 C 333.407 465.543 346.227 483.903 363.797 492.873 C 373.737 497.943 378.547 499.233 389.407 499.773 C 409.917 500.783 422.367 495.903 437.137 481.083 C 450.617 467.553 455.727 456.243 458.197 434.543 C 458.857 428.753 459.117 383.943 458.927 309.043 L 458.637 192.543 L 458.637 104.543 L 554.637 103.543 L 554.937 273.543 C 555.157 394.043 554.917 446.743 554.117 454.543 C 552.307 472.293 546.637 493.293 540.167 506.223 C 531.077 524.393 522.117 536.873 507.747 551.403 C 484.577 574.843 456.467 589.803 422.767 596.633 Z" 
        fill="rgb(195, 213, 228)"/>

  <path d="M 760.713 659.063 C 756.043 659.603 742.453 660.283 730.523 660.583 C 711.733 661.053 708.623 660.913 707.273 659.563 C 705.913 658.213 705.713 652.993 705.713 619.143 C 705.713 591.853 706.043 580.063 706.813 579.593 C 707.423 579.213 715.733 578.973 725.273 579.053 C 745.393 579.223 752.413 578.083 764.043 572.773 C 785.613 562.913 798.583 544.763 800.333 521.953 C 801.263 509.783 799.443 500.713 793.853 489.733 C 785.663 473.623 774.433 464.493 753.523 456.933 L 747.213 454.653 L 663.213 454.473 L 579.213 454.293 L 578.963 310.273 L 578.703 166.243 L 582.173 165.593 C 584.083 165.233 617.263 165.153 655.923 165.423 C 715.613 165.823 727.643 166.143 735.713 167.563 C 763.993 172.533 791.063 185.173 808.593 201.613 C 814.743 207.383 826.893 221.513 831.403 228.153 C 836.423 235.543 844.563 252.593 847.773 262.433 C 853.913 281.243 854.993 288.033 855.043 308.153 C 855.093 324.973 854.843 327.743 852.303 338.613 C 850.773 345.193 848.393 353.743 847.013 357.613 C 844.543 364.543 836.243 380.993 832.453 386.443 C 829.883 390.143 830.763 393.053 835.383 396.153 C 840.943 399.883 851.893 411.143 858.053 419.483 C 871.843 438.123 881.203 459.613 885.353 482.153 C 887.773 495.323 887.773 530.333 885.353 541.153 C 882.513 553.833 875.233 574.723 871.243 581.653 C 869.973 583.853 868.013 587.313 866.873 589.343 C 863.313 595.723 853.593 608.373 846.773 615.533 C 823.963 639.443 792.413 655.403 760.713 659.063 Z M 664.353 360.383 C 664.703 360.943 675.933 361.163 692.073 360.943 C 718.363 360.573 719.423 360.483 725.953 357.983 C 741.943 351.873 754.153 341.223 760.733 327.653 C 765.503 317.823 766.653 312.963 766.693 302.583 C 766.713 293.003 764.133 282.253 760.173 275.493 C 753.123 263.473 738.493 252.493 724.213 248.523 C 716.043 246.243 666.533 245.223 664.063 247.283 C 662.623 248.473 662.533 254.033 663.123 304.033 C 663.483 334.513 664.043 359.873 664.353 360.383 Z" 
        fill="rgb(246, 235, 200)"/>

</svg>